<?xml version="1.0" encoding="utf-8"?>
<!-- Generator: Adobe Illustrator 16.0.0, SVG Export Plug-In . SVG Version: 6.00 Build 0)  -->
<!DOCTYPE svg PUBLIC "-//W3C//DTD SVG 1.1//EN" "http://www.w3.org/Graphics/SVG/1.1/DTD/svg11.dtd">
<svg xmlns="http://www.w3.org/2000/svg" xmlns:xlink="http://www.w3.org/1999/xlink" version="1.1" id="Layer_1" x="0px" y="0px" width="100px" height="100px" viewBox="0 0 100 100" enable-background="new 0 0 100 100" xml:space="preserve">
<g>
			<path fill="#BCBEC0" d="M52.5,83.552l-6.003-5.502c-10.872-9.537-19.477-18.009-25.812-25.412
				c-6.338-7.403-9.604-14.972-9.805-22.71c0.133-6.469,2.334-11.871,6.603-16.207c4.268-4.335,9.705-6.536,16.308-6.604
				c3.602,0,7.036,0.768,10.305,2.301c3.268,1.535,6.068,3.637,8.404,6.304c2.333-2.602,5.135-4.702,8.403-6.304
				c3.268-1.601,6.736-2.366,10.404-2.301c6.469,0.135,11.871,2.336,16.208,6.604c4.335,4.269,6.535,9.671,6.603,16.207
				c-0.134,7.738-3.401,15.307-9.804,22.71C77.912,60.042,69.34,68.513,58.603,78.05L52.5,83.552z"/>
</g>
</svg>
