<?xml version="1.0" encoding="utf-8"?>
<!-- Generator: Adobe Illustrator 16.0.0, SVG Export Plug-In . SVG Version: 6.00 Build 0)  -->
<!DOCTYPE svg PUBLIC "-//W3C//DTD SVG 1.1//EN" "http://www.w3.org/Graphics/SVG/1.1/DTD/svg11.dtd">
<svg xmlns="http://www.w3.org/2000/svg" xmlns:xlink="http://www.w3.org/1999/xlink" version="1.1" id="Layer_1" x="0px" y="0px" width="100px" height="100px" viewBox="0 0 100 100" enable-background="new 0 0 100 100" xml:space="preserve">
<g>

			<path fill="#BCBEC0" d="M8.579,37.388h16.076v47.845H8.579V37.388z M96.421,49.35c0,1.021-0.191,2.009-0.574,2.966L83.694,80.352
				c-0.575,1.469-1.531,2.647-2.87,3.541c-1.34,0.893-2.808,1.34-4.402,1.34H40.539c-2.297,0.063-4.179-0.703-5.646-2.297
				c-1.468-1.594-2.265-3.508-2.392-5.741V37.388c0.127-2.231,0.924-4.114,2.392-5.645L61.112,5.429l4.306,4.306
				c1.083,1.085,1.626,2.456,1.626,4.114v1.34l-3.923,18.276h25.262c2.296-0.063,4.177,0.67,5.645,2.201
				c1.467,1.53,2.264,3.413,2.393,5.645V49.35z"/>

	</g>

</svg>
