<?xml version="1.0" encoding="utf-8"?>
<!-- Generator: Adobe Illustrator 16.0.0, SVG Export Plug-In . SVG Version: 6.00 Build 0)  -->
<!DOCTYPE svg PUBLIC "-//W3C//DTD SVG 1.1//EN" "http://www.w3.org/Graphics/SVG/1.1/DTD/svg11.dtd">
<svg xmlns="http://www.w3.org/2000/svg" xmlns:xlink="http://www.w3.org/1999/xlink" version="1.1" id="Layer_1" x="0px" y="0px" width="100px" height="100px" viewBox="0 0 100 100" enable-background="new 0 0 100 100" xml:space="preserve">
	<g>
			<path fill="#BCBEC0" d="M26.196,88.529c-1.882,1.138-3.01,0.317-2.506-1.824l6.116-25.972c0.504-2.142-0.442-5.073-2.104-6.516
				L7.59,36.764c-1.662-1.442-1.228-2.778,0.964-2.969l26.479-2.302c2.191-0.19,4.689-2.003,5.551-4.027L50.934,3.143
				c0.861-2.024,2.271-2.024,3.132,0l10.348,24.323c0.861,2.024,3.359,3.837,5.551,4.027l26.479,2.302
				c2.191,0.19,2.628,1.529,0.97,2.975L77.405,54.211c-1.658,1.445-2.608,4.381-2.111,6.524l6.027,25.966
				c0.498,2.143-0.636,2.965-2.519,1.827l-22.88-13.836c-1.882-1.138-4.963-1.138-6.846,0L26.196,88.529z"/>
	</g>
</svg>
